<mxfile host="app.diagrams.net" modified="2020-11-14T07:09:49.750Z" agent="5.0 (Windows)" etag="cJwwZqpt0Lg97NUqCWdS" version="13.9.8" type="github">
  <diagram id="O9dZsdtczccSVJ54EmD-" name="Page-1">
    <mxGraphModel dx="1955" dy="1160" grid="1" gridSize="10" guides="1" tooltips="1" connect="1" arrows="1" fold="1" page="1" pageScale="1" pageWidth="850" pageHeight="1100" background="#F4F1DE" math="0" shadow="0">
      <root>
        <mxCell id="0" />
        <mxCell id="1" parent="0" />
        <mxCell id="uIhXe0ORPWUbSx18GIjx-66" value="ساختمان" style="shape=table;startSize=30;container=1;collapsible=1;childLayout=tableLayout;fixedRows=1;rowLines=0;fontStyle=1;align=center;resizeLast=1;fillColor=#f8cecc;strokeColor=#b85450;labelBackgroundColor=#ffffff;" vertex="1" parent="1">
          <mxGeometry x="310" y="160" width="180" height="160" as="geometry" />
        </mxCell>
        <mxCell id="uIhXe0ORPWUbSx18GIjx-67" value="" style="shape=partialRectangle;collapsible=0;dropTarget=0;pointerEvents=0;top=0;left=0;bottom=1;right=0;points=[[0,0.5],[1,0.5]];portConstraint=eastwest;fillColor=none;strokeColor=#E07A5F;fontColor=#393C56;" vertex="1" parent="uIhXe0ORPWUbSx18GIjx-66">
          <mxGeometry y="30" width="180" height="30" as="geometry" />
        </mxCell>
        <mxCell id="uIhXe0ORPWUbSx18GIjx-68" value="PK" style="shape=partialRectangle;connectable=0;top=0;left=0;bottom=0;right=0;fontStyle=1;overflow=hidden;fillColor=none;strokeColor=#E07A5F;fontColor=#393C56;" vertex="1" parent="uIhXe0ORPWUbSx18GIjx-67">
          <mxGeometry width="30" height="30" as="geometry" />
        </mxCell>
        <mxCell id="uIhXe0ORPWUbSx18GIjx-69" value="نام" style="shape=partialRectangle;connectable=0;top=0;left=0;bottom=0;right=0;align=left;spacingLeft=6;fontStyle=5;overflow=hidden;fillColor=none;strokeColor=#E07A5F;fontColor=#393C56;" vertex="1" parent="uIhXe0ORPWUbSx18GIjx-67">
          <mxGeometry x="30" width="150" height="30" as="geometry" />
        </mxCell>
        <mxCell id="uIhXe0ORPWUbSx18GIjx-70" value="" style="shape=partialRectangle;collapsible=0;dropTarget=0;pointerEvents=0;top=0;left=0;bottom=0;right=0;points=[[0,0.5],[1,0.5]];portConstraint=eastwest;fillColor=none;strokeColor=#E07A5F;fontColor=#393C56;" vertex="1" parent="uIhXe0ORPWUbSx18GIjx-66">
          <mxGeometry y="60" width="180" height="30" as="geometry" />
        </mxCell>
        <mxCell id="uIhXe0ORPWUbSx18GIjx-71" value="م" style="shape=partialRectangle;connectable=0;top=0;left=0;bottom=0;right=0;editable=1;overflow=hidden;fillColor=none;strokeColor=#E07A5F;fontColor=#393C56;" vertex="1" parent="uIhXe0ORPWUbSx18GIjx-70">
          <mxGeometry width="30" height="30" as="geometry" />
        </mxCell>
        <mxCell id="uIhXe0ORPWUbSx18GIjx-72" value="متراژ" style="shape=partialRectangle;connectable=0;top=0;left=0;bottom=0;right=0;align=left;spacingLeft=6;overflow=hidden;fillColor=none;strokeColor=#E07A5F;fontColor=#393C56;" vertex="1" parent="uIhXe0ORPWUbSx18GIjx-70">
          <mxGeometry x="30" width="150" height="30" as="geometry" />
        </mxCell>
        <mxCell id="uIhXe0ORPWUbSx18GIjx-73" value="" style="shape=partialRectangle;collapsible=0;dropTarget=0;pointerEvents=0;top=0;left=0;bottom=0;right=0;points=[[0,0.5],[1,0.5]];portConstraint=eastwest;fillColor=none;strokeColor=#E07A5F;fontColor=#393C56;" vertex="1" parent="uIhXe0ORPWUbSx18GIjx-66">
          <mxGeometry y="90" width="180" height="30" as="geometry" />
        </mxCell>
        <mxCell id="uIhXe0ORPWUbSx18GIjx-74" value="" style="shape=partialRectangle;connectable=0;top=0;left=0;bottom=0;right=0;editable=1;overflow=hidden;fillColor=none;strokeColor=#E07A5F;fontColor=#393C56;" vertex="1" parent="uIhXe0ORPWUbSx18GIjx-73">
          <mxGeometry width="30" height="30" as="geometry" />
        </mxCell>
        <mxCell id="uIhXe0ORPWUbSx18GIjx-75" value="تعداد اسانسور" style="shape=partialRectangle;connectable=0;top=0;left=0;bottom=0;right=0;align=left;spacingLeft=6;overflow=hidden;fillColor=none;strokeColor=#E07A5F;fontColor=#393C56;" vertex="1" parent="uIhXe0ORPWUbSx18GIjx-73">
          <mxGeometry x="30" width="150" height="30" as="geometry" />
        </mxCell>
        <mxCell id="uIhXe0ORPWUbSx18GIjx-76" value="" style="shape=partialRectangle;collapsible=0;dropTarget=0;pointerEvents=0;top=0;left=0;bottom=0;right=0;points=[[0,0.5],[1,0.5]];portConstraint=eastwest;fillColor=none;strokeColor=#E07A5F;fontColor=#393C56;" vertex="1" parent="uIhXe0ORPWUbSx18GIjx-66">
          <mxGeometry y="120" width="180" height="30" as="geometry" />
        </mxCell>
        <mxCell id="uIhXe0ORPWUbSx18GIjx-77" value="" style="shape=partialRectangle;connectable=0;top=0;left=0;bottom=0;right=0;editable=1;overflow=hidden;fillColor=none;strokeColor=#E07A5F;fontColor=#393C56;" vertex="1" parent="uIhXe0ORPWUbSx18GIjx-76">
          <mxGeometry width="30" height="30" as="geometry" />
        </mxCell>
        <mxCell id="uIhXe0ORPWUbSx18GIjx-78" value="تعداد طبقات" style="shape=partialRectangle;connectable=0;top=0;left=0;bottom=0;right=0;align=left;spacingLeft=6;overflow=hidden;fillColor=none;strokeColor=#E07A5F;fontColor=#393C56;" vertex="1" parent="uIhXe0ORPWUbSx18GIjx-76">
          <mxGeometry x="30" width="150" height="30" as="geometry" />
        </mxCell>
        <mxCell id="uIhXe0ORPWUbSx18GIjx-92" style="edgeStyle=orthogonalEdgeStyle;rounded=0;orthogonalLoop=1;jettySize=auto;html=1;exitX=1;exitY=0.5;exitDx=0;exitDy=0;entryX=-0.014;entryY=-0.667;entryDx=0;entryDy=0;labelBackgroundColor=#F4F1DE;strokeColor=#E07A5F;fontColor=#393C56;entryPerimeter=0;" edge="1" parent="1" source="uIhXe0ORPWUbSx18GIjx-67" target="uIhXe0ORPWUbSx18GIjx-110">
          <mxGeometry relative="1" as="geometry">
            <mxPoint x="610" y="265" as="targetPoint" />
          </mxGeometry>
        </mxCell>
        <mxCell id="uIhXe0ORPWUbSx18GIjx-93" value="مالک" style="shape=table;startSize=30;container=1;collapsible=1;childLayout=tableLayout;fixedRows=1;rowLines=0;fontStyle=1;align=center;resizeLast=1;fillColor=#F2CC8F;strokeColor=#E07A5F;fontColor=#393C56;" vertex="1" parent="1">
          <mxGeometry x="970" y="160" width="180" height="130" as="geometry" />
        </mxCell>
        <mxCell id="uIhXe0ORPWUbSx18GIjx-94" value="" style="shape=partialRectangle;collapsible=0;dropTarget=0;pointerEvents=0;fillColor=none;top=0;left=0;bottom=1;right=0;points=[[0,0.5],[1,0.5]];portConstraint=eastwest;strokeColor=#E07A5F;fontColor=#393C56;" vertex="1" parent="uIhXe0ORPWUbSx18GIjx-93">
          <mxGeometry y="30" width="180" height="30" as="geometry" />
        </mxCell>
        <mxCell id="uIhXe0ORPWUbSx18GIjx-95" value="PK" style="shape=partialRectangle;connectable=0;fillColor=none;top=0;left=0;bottom=0;right=0;fontStyle=1;overflow=hidden;strokeColor=#E07A5F;fontColor=#393C56;" vertex="1" parent="uIhXe0ORPWUbSx18GIjx-94">
          <mxGeometry width="30" height="30" as="geometry" />
        </mxCell>
        <mxCell id="uIhXe0ORPWUbSx18GIjx-96" value="شماره ملی" style="shape=partialRectangle;connectable=0;fillColor=none;top=0;left=0;bottom=0;right=0;align=left;spacingLeft=6;fontStyle=5;overflow=hidden;strokeColor=#E07A5F;fontColor=#393C56;" vertex="1" parent="uIhXe0ORPWUbSx18GIjx-94">
          <mxGeometry x="30" width="150" height="30" as="geometry" />
        </mxCell>
        <mxCell id="uIhXe0ORPWUbSx18GIjx-97" value="" style="shape=partialRectangle;collapsible=0;dropTarget=0;pointerEvents=0;fillColor=none;top=0;left=0;bottom=0;right=0;points=[[0,0.5],[1,0.5]];portConstraint=eastwest;strokeColor=#E07A5F;fontColor=#393C56;" vertex="1" parent="uIhXe0ORPWUbSx18GIjx-93">
          <mxGeometry y="60" width="180" height="30" as="geometry" />
        </mxCell>
        <mxCell id="uIhXe0ORPWUbSx18GIjx-98" value="" style="shape=partialRectangle;connectable=0;fillColor=none;top=0;left=0;bottom=0;right=0;editable=1;overflow=hidden;strokeColor=#E07A5F;fontColor=#393C56;" vertex="1" parent="uIhXe0ORPWUbSx18GIjx-97">
          <mxGeometry width="30" height="30" as="geometry" />
        </mxCell>
        <mxCell id="uIhXe0ORPWUbSx18GIjx-99" value="نام" style="shape=partialRectangle;connectable=0;fillColor=none;top=0;left=0;bottom=0;right=0;align=left;spacingLeft=6;overflow=hidden;strokeColor=#E07A5F;fontColor=#393C56;" vertex="1" parent="uIhXe0ORPWUbSx18GIjx-97">
          <mxGeometry x="30" width="150" height="30" as="geometry" />
        </mxCell>
        <mxCell id="uIhXe0ORPWUbSx18GIjx-100" value="" style="shape=partialRectangle;collapsible=0;dropTarget=0;pointerEvents=0;fillColor=none;top=0;left=0;bottom=0;right=0;points=[[0,0.5],[1,0.5]];portConstraint=eastwest;strokeColor=#E07A5F;fontColor=#393C56;" vertex="1" parent="uIhXe0ORPWUbSx18GIjx-93">
          <mxGeometry y="90" width="180" height="30" as="geometry" />
        </mxCell>
        <mxCell id="uIhXe0ORPWUbSx18GIjx-101" value="" style="shape=partialRectangle;connectable=0;fillColor=none;top=0;left=0;bottom=0;right=0;editable=1;overflow=hidden;strokeColor=#E07A5F;fontColor=#393C56;" vertex="1" parent="uIhXe0ORPWUbSx18GIjx-100">
          <mxGeometry width="30" height="30" as="geometry" />
        </mxCell>
        <mxCell id="uIhXe0ORPWUbSx18GIjx-102" value="نام خانوادگی" style="shape=partialRectangle;connectable=0;fillColor=none;top=0;left=0;bottom=0;right=0;align=left;spacingLeft=6;overflow=hidden;strokeColor=#E07A5F;fontColor=#393C56;" vertex="1" parent="uIhXe0ORPWUbSx18GIjx-100">
          <mxGeometry x="30" width="150" height="30" as="geometry" />
        </mxCell>
        <mxCell id="uIhXe0ORPWUbSx18GIjx-106" value="واحد" style="shape=table;startSize=30;container=1;collapsible=1;childLayout=tableLayout;fixedRows=1;rowLines=0;fontStyle=1;align=center;resizeLast=1;fillColor=#F2CC8F;strokeColor=#E07A5F;fontColor=#393C56;" vertex="1" parent="1">
          <mxGeometry x="650" y="170" width="180" height="160" as="geometry" />
        </mxCell>
        <mxCell id="uIhXe0ORPWUbSx18GIjx-107" value="" style="shape=partialRectangle;collapsible=0;dropTarget=0;pointerEvents=0;fillColor=none;top=0;left=0;bottom=0;right=0;points=[[0,0.5],[1,0.5]];portConstraint=eastwest;strokeColor=#E07A5F;fontColor=#393C56;" vertex="1" parent="uIhXe0ORPWUbSx18GIjx-106">
          <mxGeometry y="30" width="180" height="30" as="geometry" />
        </mxCell>
        <mxCell id="uIhXe0ORPWUbSx18GIjx-108" value="PK,FK1" style="shape=partialRectangle;connectable=0;fillColor=none;top=0;left=0;bottom=0;right=0;fontStyle=1;overflow=hidden;strokeColor=#E07A5F;fontColor=#393C56;" vertex="1" parent="uIhXe0ORPWUbSx18GIjx-107">
          <mxGeometry width="60" height="30" as="geometry" />
        </mxCell>
        <mxCell id="uIhXe0ORPWUbSx18GIjx-109" value="نام ساختمان" style="shape=partialRectangle;connectable=0;fillColor=none;top=0;left=0;bottom=0;right=0;align=left;spacingLeft=6;fontStyle=5;overflow=hidden;strokeColor=#E07A5F;fontColor=#393C56;" vertex="1" parent="uIhXe0ORPWUbSx18GIjx-107">
          <mxGeometry x="60" width="120" height="30" as="geometry" />
        </mxCell>
        <mxCell id="uIhXe0ORPWUbSx18GIjx-110" value="" style="shape=partialRectangle;collapsible=0;dropTarget=0;pointerEvents=0;fillColor=none;top=0;left=0;bottom=1;right=0;points=[[0,0.5],[1,0.5]];portConstraint=eastwest;strokeColor=#E07A5F;fontColor=#393C56;" vertex="1" parent="uIhXe0ORPWUbSx18GIjx-106">
          <mxGeometry y="60" width="180" height="30" as="geometry" />
        </mxCell>
        <mxCell id="uIhXe0ORPWUbSx18GIjx-111" value="PK,FK2" style="shape=partialRectangle;connectable=0;fillColor=none;top=0;left=0;bottom=0;right=0;fontStyle=1;overflow=hidden;strokeColor=#E07A5F;fontColor=#393C56;" vertex="1" parent="uIhXe0ORPWUbSx18GIjx-110">
          <mxGeometry width="60" height="30" as="geometry" />
        </mxCell>
        <mxCell id="uIhXe0ORPWUbSx18GIjx-112" value="&#xa;شماره طبقه" style="shape=partialRectangle;connectable=0;fillColor=none;top=0;left=0;bottom=0;right=0;align=left;spacingLeft=6;fontStyle=5;overflow=hidden;strokeColor=#E07A5F;fontColor=#393C56;" vertex="1" parent="uIhXe0ORPWUbSx18GIjx-110">
          <mxGeometry x="60" width="120" height="30" as="geometry" />
        </mxCell>
        <mxCell id="uIhXe0ORPWUbSx18GIjx-113" value="" style="shape=partialRectangle;collapsible=0;dropTarget=0;pointerEvents=0;fillColor=none;top=0;left=0;bottom=0;right=0;points=[[0,0.5],[1,0.5]];portConstraint=eastwest;strokeColor=#E07A5F;fontColor=#393C56;" vertex="1" parent="uIhXe0ORPWUbSx18GIjx-106">
          <mxGeometry y="90" width="180" height="30" as="geometry" />
        </mxCell>
        <mxCell id="uIhXe0ORPWUbSx18GIjx-114" value="" style="shape=partialRectangle;connectable=0;fillColor=none;top=0;left=0;bottom=0;right=0;editable=1;overflow=hidden;strokeColor=#E07A5F;fontColor=#393C56;" vertex="1" parent="uIhXe0ORPWUbSx18GIjx-113">
          <mxGeometry width="60" height="30" as="geometry" />
        </mxCell>
        <mxCell id="uIhXe0ORPWUbSx18GIjx-115" value="متراژ" style="shape=partialRectangle;connectable=0;fillColor=none;top=0;left=0;bottom=0;right=0;align=left;spacingLeft=6;overflow=hidden;strokeColor=#E07A5F;fontColor=#393C56;" vertex="1" parent="uIhXe0ORPWUbSx18GIjx-113">
          <mxGeometry x="60" width="120" height="30" as="geometry" />
        </mxCell>
        <mxCell id="uIhXe0ORPWUbSx18GIjx-116" value="" style="shape=partialRectangle;collapsible=0;dropTarget=0;pointerEvents=0;fillColor=none;top=0;left=0;bottom=0;right=0;points=[[0,0.5],[1,0.5]];portConstraint=eastwest;strokeColor=#E07A5F;fontColor=#393C56;" vertex="1" parent="uIhXe0ORPWUbSx18GIjx-106">
          <mxGeometry y="120" width="180" height="30" as="geometry" />
        </mxCell>
        <mxCell id="uIhXe0ORPWUbSx18GIjx-117" value="" style="shape=partialRectangle;connectable=0;fillColor=none;top=0;left=0;bottom=0;right=0;editable=1;overflow=hidden;strokeColor=#E07A5F;fontColor=#393C56;" vertex="1" parent="uIhXe0ORPWUbSx18GIjx-116">
          <mxGeometry width="60" height="30" as="geometry" />
        </mxCell>
        <mxCell id="uIhXe0ORPWUbSx18GIjx-118" value="" style="shape=partialRectangle;connectable=0;fillColor=none;top=0;left=0;bottom=0;right=0;align=left;spacingLeft=6;overflow=hidden;strokeColor=#E07A5F;fontColor=#393C56;" vertex="1" parent="uIhXe0ORPWUbSx18GIjx-116">
          <mxGeometry x="60" width="120" height="30" as="geometry" />
        </mxCell>
        <mxCell id="uIhXe0ORPWUbSx18GIjx-132" value="پارکینگ" style="shape=table;startSize=30;container=1;collapsible=1;childLayout=tableLayout;fixedRows=1;rowLines=0;fontStyle=1;align=center;resizeLast=1;fillColor=#F2CC8F;strokeColor=#E07A5F;fontColor=#393C56;" vertex="1" parent="1">
          <mxGeometry x="750" y="420" width="180" height="160" as="geometry" />
        </mxCell>
        <mxCell id="uIhXe0ORPWUbSx18GIjx-133" value="" style="shape=partialRectangle;collapsible=0;dropTarget=0;pointerEvents=0;fillColor=none;top=0;left=0;bottom=0;right=0;points=[[0,0.5],[1,0.5]];portConstraint=eastwest;strokeColor=#E07A5F;fontColor=#393C56;" vertex="1" parent="uIhXe0ORPWUbSx18GIjx-132">
          <mxGeometry y="30" width="180" height="30" as="geometry" />
        </mxCell>
        <mxCell id="uIhXe0ORPWUbSx18GIjx-134" value="PK,FK1" style="shape=partialRectangle;connectable=0;fillColor=none;top=0;left=0;bottom=0;right=0;fontStyle=1;overflow=hidden;strokeColor=#E07A5F;fontColor=#393C56;" vertex="1" parent="uIhXe0ORPWUbSx18GIjx-133">
          <mxGeometry width="60" height="30" as="geometry" />
        </mxCell>
        <mxCell id="uIhXe0ORPWUbSx18GIjx-135" value="شماره طبقه" style="shape=partialRectangle;connectable=0;fillColor=none;top=0;left=0;bottom=0;right=0;align=left;spacingLeft=6;fontStyle=5;overflow=hidden;strokeColor=#E07A5F;fontColor=#393C56;" vertex="1" parent="uIhXe0ORPWUbSx18GIjx-133">
          <mxGeometry x="60" width="120" height="30" as="geometry" />
        </mxCell>
        <mxCell id="uIhXe0ORPWUbSx18GIjx-136" value="" style="shape=partialRectangle;collapsible=0;dropTarget=0;pointerEvents=0;fillColor=none;top=0;left=0;bottom=1;right=0;points=[[0,0.5],[1,0.5]];portConstraint=eastwest;strokeColor=#E07A5F;fontColor=#393C56;" vertex="1" parent="uIhXe0ORPWUbSx18GIjx-132">
          <mxGeometry y="60" width="180" height="30" as="geometry" />
        </mxCell>
        <mxCell id="uIhXe0ORPWUbSx18GIjx-137" value="PK,FK2" style="shape=partialRectangle;connectable=0;fillColor=none;top=0;left=0;bottom=0;right=0;fontStyle=1;overflow=hidden;strokeColor=#E07A5F;fontColor=#393C56;" vertex="1" parent="uIhXe0ORPWUbSx18GIjx-136">
          <mxGeometry width="60" height="30" as="geometry" />
        </mxCell>
        <mxCell id="uIhXe0ORPWUbSx18GIjx-138" value="شماره پارکینگ" style="shape=partialRectangle;connectable=0;fillColor=none;top=0;left=0;bottom=0;right=0;align=left;spacingLeft=6;fontStyle=5;overflow=hidden;strokeColor=#E07A5F;fontColor=#393C56;" vertex="1" parent="uIhXe0ORPWUbSx18GIjx-136">
          <mxGeometry x="60" width="120" height="30" as="geometry" />
        </mxCell>
        <mxCell id="uIhXe0ORPWUbSx18GIjx-139" value="" style="shape=partialRectangle;collapsible=0;dropTarget=0;pointerEvents=0;fillColor=none;top=0;left=0;bottom=0;right=0;points=[[0,0.5],[1,0.5]];portConstraint=eastwest;strokeColor=#E07A5F;fontColor=#393C56;" vertex="1" parent="uIhXe0ORPWUbSx18GIjx-132">
          <mxGeometry y="90" width="180" height="30" as="geometry" />
        </mxCell>
        <mxCell id="uIhXe0ORPWUbSx18GIjx-140" value="" style="shape=partialRectangle;connectable=0;fillColor=none;top=0;left=0;bottom=0;right=0;editable=1;overflow=hidden;strokeColor=#E07A5F;fontColor=#393C56;" vertex="1" parent="uIhXe0ORPWUbSx18GIjx-139">
          <mxGeometry width="60" height="30" as="geometry" />
        </mxCell>
        <mxCell id="uIhXe0ORPWUbSx18GIjx-141" value="ای دی واحد" style="shape=partialRectangle;connectable=0;fillColor=none;top=0;left=0;bottom=0;right=0;align=left;spacingLeft=6;overflow=hidden;strokeColor=#E07A5F;fontColor=#393C56;" vertex="1" parent="uIhXe0ORPWUbSx18GIjx-139">
          <mxGeometry x="60" width="120" height="30" as="geometry" />
        </mxCell>
        <mxCell id="uIhXe0ORPWUbSx18GIjx-142" value="" style="shape=partialRectangle;collapsible=0;dropTarget=0;pointerEvents=0;fillColor=none;top=0;left=0;bottom=0;right=0;points=[[0,0.5],[1,0.5]];portConstraint=eastwest;strokeColor=#E07A5F;fontColor=#393C56;" vertex="1" parent="uIhXe0ORPWUbSx18GIjx-132">
          <mxGeometry y="120" width="180" height="30" as="geometry" />
        </mxCell>
        <mxCell id="uIhXe0ORPWUbSx18GIjx-143" value="" style="shape=partialRectangle;connectable=0;fillColor=none;top=0;left=0;bottom=0;right=0;editable=1;overflow=hidden;strokeColor=#E07A5F;fontColor=#393C56;" vertex="1" parent="uIhXe0ORPWUbSx18GIjx-142">
          <mxGeometry width="60" height="30" as="geometry" />
        </mxCell>
        <mxCell id="uIhXe0ORPWUbSx18GIjx-144" value="" style="shape=partialRectangle;connectable=0;fillColor=none;top=0;left=0;bottom=0;right=0;align=left;spacingLeft=6;overflow=hidden;strokeColor=#E07A5F;fontColor=#393C56;" vertex="1" parent="uIhXe0ORPWUbSx18GIjx-142">
          <mxGeometry x="60" width="120" height="30" as="geometry" />
        </mxCell>
        <mxCell id="uIhXe0ORPWUbSx18GIjx-145" style="edgeStyle=orthogonalEdgeStyle;rounded=0;orthogonalLoop=1;jettySize=auto;html=1;exitX=1;exitY=0.5;exitDx=0;exitDy=0;entryX=0;entryY=0.5;entryDx=0;entryDy=0;labelBackgroundColor=#F4F1DE;strokeColor=#E07A5F;fontColor=#393C56;" edge="1" parent="1" source="uIhXe0ORPWUbSx18GIjx-110" target="uIhXe0ORPWUbSx18GIjx-136">
          <mxGeometry relative="1" as="geometry" />
        </mxCell>
        <mxCell id="uIhXe0ORPWUbSx18GIjx-146" value="خرید ساختمان" style="shape=table;startSize=30;container=1;collapsible=1;childLayout=tableLayout;fixedRows=1;rowLines=0;fontStyle=1;align=center;resizeLast=1;fillColor=#F2CC8F;strokeColor=#E07A5F;fontColor=#393C56;" vertex="1" parent="1">
          <mxGeometry x="1050" y="380" width="180" height="160" as="geometry" />
        </mxCell>
        <mxCell id="uIhXe0ORPWUbSx18GIjx-147" value="" style="shape=partialRectangle;collapsible=0;dropTarget=0;pointerEvents=0;fillColor=none;top=0;left=0;bottom=0;right=0;points=[[0,0.5],[1,0.5]];portConstraint=eastwest;strokeColor=#E07A5F;fontColor=#393C56;" vertex="1" parent="uIhXe0ORPWUbSx18GIjx-146">
          <mxGeometry y="30" width="180" height="30" as="geometry" />
        </mxCell>
        <mxCell id="uIhXe0ORPWUbSx18GIjx-148" value="PK,FK1" style="shape=partialRectangle;connectable=0;fillColor=none;top=0;left=0;bottom=0;right=0;fontStyle=1;overflow=hidden;strokeColor=#E07A5F;fontColor=#393C56;" vertex="1" parent="uIhXe0ORPWUbSx18GIjx-147">
          <mxGeometry width="60" height="30" as="geometry" />
        </mxCell>
        <mxCell id="uIhXe0ORPWUbSx18GIjx-149" value="ای دی واحد" style="shape=partialRectangle;connectable=0;fillColor=none;top=0;left=0;bottom=0;right=0;align=left;spacingLeft=6;fontStyle=5;overflow=hidden;strokeColor=#E07A5F;fontColor=#393C56;" vertex="1" parent="uIhXe0ORPWUbSx18GIjx-147">
          <mxGeometry x="60" width="120" height="30" as="geometry" />
        </mxCell>
        <mxCell id="uIhXe0ORPWUbSx18GIjx-150" value="" style="shape=partialRectangle;collapsible=0;dropTarget=0;pointerEvents=0;fillColor=none;top=0;left=0;bottom=1;right=0;points=[[0,0.5],[1,0.5]];portConstraint=eastwest;strokeColor=#E07A5F;fontColor=#393C56;" vertex="1" parent="uIhXe0ORPWUbSx18GIjx-146">
          <mxGeometry y="60" width="180" height="30" as="geometry" />
        </mxCell>
        <mxCell id="uIhXe0ORPWUbSx18GIjx-151" value="PK,FK2" style="shape=partialRectangle;connectable=0;fillColor=none;top=0;left=0;bottom=0;right=0;fontStyle=1;overflow=hidden;strokeColor=#E07A5F;fontColor=#393C56;" vertex="1" parent="uIhXe0ORPWUbSx18GIjx-150">
          <mxGeometry width="60" height="30" as="geometry" />
        </mxCell>
        <mxCell id="uIhXe0ORPWUbSx18GIjx-152" value="ایدی خریدار" style="shape=partialRectangle;connectable=0;fillColor=none;top=0;left=0;bottom=0;right=0;align=left;spacingLeft=6;fontStyle=5;overflow=hidden;strokeColor=#E07A5F;fontColor=#393C56;" vertex="1" parent="uIhXe0ORPWUbSx18GIjx-150">
          <mxGeometry x="60" width="120" height="30" as="geometry" />
        </mxCell>
        <mxCell id="uIhXe0ORPWUbSx18GIjx-153" value="" style="shape=partialRectangle;collapsible=0;dropTarget=0;pointerEvents=0;fillColor=none;top=0;left=0;bottom=0;right=0;points=[[0,0.5],[1,0.5]];portConstraint=eastwest;strokeColor=#E07A5F;fontColor=#393C56;" vertex="1" parent="uIhXe0ORPWUbSx18GIjx-146">
          <mxGeometry y="90" width="180" height="30" as="geometry" />
        </mxCell>
        <mxCell id="uIhXe0ORPWUbSx18GIjx-154" value="" style="shape=partialRectangle;connectable=0;fillColor=none;top=0;left=0;bottom=0;right=0;editable=1;overflow=hidden;strokeColor=#E07A5F;fontColor=#393C56;" vertex="1" parent="uIhXe0ORPWUbSx18GIjx-153">
          <mxGeometry width="60" height="30" as="geometry" />
        </mxCell>
        <mxCell id="uIhXe0ORPWUbSx18GIjx-155" value="تاریخ  خرید" style="shape=partialRectangle;connectable=0;fillColor=none;top=0;left=0;bottom=0;right=0;align=left;spacingLeft=6;overflow=hidden;strokeColor=#E07A5F;fontColor=#393C56;" vertex="1" parent="uIhXe0ORPWUbSx18GIjx-153">
          <mxGeometry x="60" width="120" height="30" as="geometry" />
        </mxCell>
        <mxCell id="uIhXe0ORPWUbSx18GIjx-156" value="" style="shape=partialRectangle;collapsible=0;dropTarget=0;pointerEvents=0;fillColor=none;top=0;left=0;bottom=0;right=0;points=[[0,0.5],[1,0.5]];portConstraint=eastwest;strokeColor=#E07A5F;fontColor=#393C56;" vertex="1" parent="uIhXe0ORPWUbSx18GIjx-146">
          <mxGeometry y="120" width="180" height="30" as="geometry" />
        </mxCell>
        <mxCell id="uIhXe0ORPWUbSx18GIjx-157" value="" style="shape=partialRectangle;connectable=0;fillColor=none;top=0;left=0;bottom=0;right=0;editable=1;overflow=hidden;strokeColor=#E07A5F;fontColor=#393C56;" vertex="1" parent="uIhXe0ORPWUbSx18GIjx-156">
          <mxGeometry width="60" height="30" as="geometry" />
        </mxCell>
        <mxCell id="uIhXe0ORPWUbSx18GIjx-158" value="تعداد دنگ" style="shape=partialRectangle;connectable=0;fillColor=none;top=0;left=0;bottom=0;right=0;align=left;spacingLeft=6;overflow=hidden;strokeColor=#E07A5F;fontColor=#393C56;" vertex="1" parent="uIhXe0ORPWUbSx18GIjx-156">
          <mxGeometry x="60" width="120" height="30" as="geometry" />
        </mxCell>
        <mxCell id="uIhXe0ORPWUbSx18GIjx-159" style="edgeStyle=orthogonalEdgeStyle;rounded=0;orthogonalLoop=1;jettySize=auto;html=1;exitX=1;exitY=0.5;exitDx=0;exitDy=0;entryX=1;entryY=0.5;entryDx=0;entryDy=0;labelBackgroundColor=#F4F1DE;strokeColor=#E07A5F;fontColor=#393C56;" edge="1" parent="1" source="uIhXe0ORPWUbSx18GIjx-94" target="uIhXe0ORPWUbSx18GIjx-150">
          <mxGeometry relative="1" as="geometry" />
        </mxCell>
        <mxCell id="uIhXe0ORPWUbSx18GIjx-160" style="edgeStyle=orthogonalEdgeStyle;rounded=0;orthogonalLoop=1;jettySize=auto;html=1;exitX=1;exitY=0.5;exitDx=0;exitDy=0;entryX=0;entryY=0.5;entryDx=0;entryDy=0;labelBackgroundColor=#F4F1DE;strokeColor=#E07A5F;fontColor=#393C56;" edge="1" parent="1" source="uIhXe0ORPWUbSx18GIjx-110" target="uIhXe0ORPWUbSx18GIjx-147">
          <mxGeometry relative="1" as="geometry" />
        </mxCell>
        <mxCell id="uIhXe0ORPWUbSx18GIjx-165" value="Item" style="shape=partialRectangle;fillColor=none;align=left;verticalAlign=middle;strokeColor=none;spacingLeft=34;rotatable=0;points=[[0,0.5],[1,0.5]];portConstraint=eastwest;dropTarget=0;rounded=0;labelBackgroundColor=#ffffff;sketch=0;fontColor=#393C56;" vertex="1" parent="1">
          <mxGeometry x="20" y="70" width="90" height="30" as="geometry" />
        </mxCell>
        <mxCell id="uIhXe0ORPWUbSx18GIjx-166" value="" style="shape=partialRectangle;top=0;left=0;bottom=0;fillColor=none;stokeWidth=1;dashed=1;align=left;verticalAlign=middle;spacingLeft=4;spacingRight=4;overflow=hidden;rotatable=0;points=[];portConstraint=eastwest;part=1;" vertex="1" connectable="0" parent="uIhXe0ORPWUbSx18GIjx-165">
          <mxGeometry width="30" height="30" as="geometry" />
        </mxCell>
      </root>
    </mxGraphModel>
  </diagram>
</mxfile>
